<?xml version="1.0" encoding="iso-8859-1"?>
<!-- Generator: Adobe Illustrator 19.0.0, SVG Export Plug-In . SVG Version: 6.00 Build 0)  -->
<!-- License: CC0. Made by SVG Repo: https://www.svgrepo.com/svg/266637/frying-pan-pan -->
<svg version="1.1" id="Layer_1" xmlns="http://www.w3.org/2000/svg" xmlns:xlink="http://www.w3.org/1999/xlink" x="0px" y="0px"
	 viewBox="0 0 511.999 511.999" style="enable-background:new 0 0 511.999 511.999;" xml:space="preserve">
<g>
	<g>
		<g>
			<path d="M307.199,465.066h-16.58c4.497-4.983,7.159-9.762,7.868-15.07c1.451-10.965-5.393-19.789-16.734-34.406
				c-2.21-2.842-4.625-5.948-7.219-9.37c-1.468-1.954-3.695-3.183-6.127-3.371c-2.423-0.179-4.83,0.666-6.588,2.347
				c-28.075,26.957-28.356,36.804-11.332,59.87h-62.02c13.833-16.768,7.876-27.494-7.296-48.99c-2.031-2.884-4.267-6.042-6.665-9.54
				c-1.314-1.929-3.362-3.226-5.666-3.601c-2.313-0.384-4.659,0.213-6.519,1.613c-15.548,11.75-24.235,20.087-25.609,30.413
				c-1.306,9.839,4.105,17.988,13.414,30.106H86.723c12.894-15.539,7.04-26.419-7.509-47.915c-2.133-3.14-4.48-6.613-7.006-10.47
				c-1.297-1.971-3.354-3.319-5.683-3.729c-2.304-0.393-4.71,0.171-6.605,1.596c-15.548,11.75-24.235,20.087-25.609,30.413
				c-1.306,9.839,4.104,17.988,13.414,30.106H25.599c-4.71,0-8.533,3.814-8.533,8.533s3.823,8.533,8.533,8.533h281.6
				c4.71,0,8.533-3.814,8.533-8.533S311.91,465.066,307.199,465.066z"/>
			<path d="M76.799,192c18.825,0,34.133-15.309,34.133-34.133s-15.309-34.133-34.133-34.133s-34.133,15.309-34.133,34.133
				S57.975,192,76.799,192z"/>
			<path d="M255.999,234.666c18.825,0,34.133-15.309,34.133-34.133S274.824,166.4,255.999,166.4
				c-18.825,0-34.133,15.309-34.133,34.133S237.175,234.666,255.999,234.666z"/>
			<path d="M170.666,46.933c3.567,0,6.997,1.092,9.899,3.157c1.493,1.067,3.226,1.587,4.941,1.587c2.662,0,5.291-1.246,6.955-3.584
				c2.739-3.831,1.843-9.165-1.997-11.904c-5.811-4.139-12.655-6.323-19.797-6.323h-0.222c-4.719,0-8.422,3.814-8.422,8.533
				S165.955,46.933,170.666,46.933z"/>
			<path d="M187.732,64c0,3.627-1.118,7.091-3.243,10.01c-2.773,3.814-1.92,9.148,1.886,11.921c1.519,1.101,3.277,1.63,5.009,1.63
				c2.645,0,5.239-1.22,6.912-3.516c4.258-5.862,6.502-12.783,6.502-20.275l-8.533-0.068h8.533c0-4.719-3.823-8.388-8.533-8.388
				C191.547,55.313,187.732,59.281,187.732,64z"/>
			<path d="M148.783,79.783c-2.756,3.823-1.894,9.156,1.929,11.913c5.845,4.215,12.74,6.434,19.951,6.434h0.077
				c4.71,0,8.499-3.814,8.499-8.533c0-4.71-3.857-8.533-8.576-8.533c-3.601,0-7.049-1.101-9.967-3.217
				C156.873,75.115,151.539,75.977,148.783,79.783z"/>
			<path d="M145.066,72.608c4.71,0,8.533-3.891,8.533-8.61c0-3.593,1.101-7.023,3.191-9.941c2.739-3.831,1.86-9.156-1.971-11.904
				c-3.849-2.756-9.165-1.86-11.904,1.971c-4.181,5.828-6.383,12.698-6.383,19.874v0.154
				C136.532,68.87,140.355,72.608,145.066,72.608z"/>
			<path d="M170.666,302.933c-31.761,0-51.2,11.051-51.2,17.067c0,6.016,19.439,17.067,51.2,17.067
				c31.761,0,51.2-11.051,51.2-17.067C221.866,313.984,202.427,302.933,170.666,302.933z M179.199,328.533h-17.067
				c-4.71,0-8.533-3.814-8.533-8.533s3.823-8.533,8.533-8.533h17.067c4.71,0,8.533,3.814,8.533,8.533
				S183.91,328.533,179.199,328.533z"/>
			<path d="M486.399,260.266H8.532c-2.739,0-5.325,1.314-6.921,3.541c-1.604,2.227-2.039,5.094-1.178,7.689l28.305,84.898
				c4.651,13.952,17.655,23.339,32.375,23.339h237.551c3.678,0,6.938-2.347,8.098-5.837l20.804-62.43h158.831
				c14.114,0,25.6-11.486,25.6-25.6S500.513,260.266,486.399,260.266z M170.666,354.133c-33.929,0-68.267-11.725-68.267-34.133
				c0-22.409,34.338-34.133,68.267-34.133s68.267,11.725,68.267,34.133C238.932,342.408,204.594,354.133,170.666,354.133z"/>
		</g>
	</g>
</g>
</svg>
